<svg version="1.1" id="Layer_1" xmlns="http://www.w3.org/2000/svg" xmlns:xlink="http://www.w3.org/1999/xlink" x="0px" y="0px"
	 width="100%" viewBox="0 0 512 512" enable-background="new 0 0 512 512" xml:space="preserve">
<path fill="#EA3428" opacity="1.000000" stroke="none" 
	d="
M513.000000,61.000000 
	C513.000000,77.354225 513.000000,93.708458 512.664062,110.462524 
	C507.842834,106.698921 503.396210,102.492828 498.859161,98.386620 
	C495.692688,95.520782 492.402344,92.791786 489.098083,89.548775 
	C488.647797,82.687286 489.078644,76.102264 487.731537,69.903625 
	C483.892334,52.237640 473.884399,39.068878 457.509369,30.792267 
	C447.177917,25.570316 436.051422,25.617535 424.926880,24.497383 
	C422.626984,21.331249 420.505432,18.407057 418.145844,15.689531 
	C413.838257,10.728449 409.389740,5.889740 405.000000,0.999994 
	C420.354218,1.000000 435.708466,1.000000 451.299194,1.360617 
	C451.879974,2.070703 452.180054,2.662350 452.574951,2.734416 
	C464.044678,4.827558 474.206787,9.957190 483.135742,17.144640 
	C496.016113,27.512852 505.613953,40.356083 510.105316,56.613056 
	C510.549072,58.219349 512.010803,59.544407 513.000000,61.000000 
z"/>
<path fill="#FBC10F" opacity="1.000000" stroke="none" 
	d="
M1.000006,453.000000 
	C1.000000,437.645782 1.000000,422.291534 1.346793,406.532623 
	C3.951852,407.741608 6.370511,409.174133 8.437439,411.003967 
	C13.983037,415.913452 19.378113,420.992981 24.903748,426.450562 
	C25.651831,433.714539 25.543758,440.726715 27.168747,447.311188 
	C30.631124,461.340668 38.902294,471.996643 51.102322,480.140594 
	C61.587337,487.139771 73.224327,487.975647 85.074066,489.490479 
	C90.393143,495.334747 95.729874,500.768585 100.821175,506.423401 
	C102.534897,508.326782 103.624908,510.791718 105.000000,513.000000 
	C90.979103,513.000000 76.958214,513.000000 62.806831,512.697021 
	C55.440933,509.425690 47.837955,507.121796 41.040722,503.361450 
	C22.469458,493.087524 9.895153,477.701660 3.887207,457.139404 
	C3.440067,455.609039 1.985986,454.372894 1.000006,453.000000 
z"/>
<path fill="#F48919" opacity="1.000000" stroke="none" 
	d="
M0.999999,131.000000 
	C1.000000,107.979103 1.000000,84.958214 1.222666,61.810398 
	C1.927973,61.438755 2.410615,61.194027 3.186686,61.120510 
	C6.916547,64.624245 10.289855,68.025192 13.806956,71.270287 
	C17.409363,74.594101 21.152573,77.765312 24.902510,81.467339 
	C24.924965,104.955750 24.879063,127.980133 24.482927,150.981186 
	C21.328941,148.712357 18.443460,146.560547 15.739173,144.201035 
	C10.769812,139.865234 5.907142,135.407135 0.999999,131.000000 
z"/>
<path fill="#F69517" opacity="1.000000" stroke="none" 
	d="
M0.999999,131.468658 
	C5.907142,135.407135 10.769812,139.865234 15.739173,144.201035 
	C18.443460,146.560547 21.328941,148.712357 24.551668,151.445129 
	C24.924871,174.623184 24.879101,197.313980 24.498276,219.932312 
	C21.332241,217.630005 18.408360,215.507126 15.690519,213.147003 
	C10.729308,208.838791 5.890103,204.390091 1.000003,200.000000 
	C1.000000,177.312439 1.000000,154.624878 0.999999,131.468658 
z"/>
<path fill="#EE5322" opacity="1.000000" stroke="none" 
	d="
M513.000000,235.000000 
	C513.000000,256.354218 513.000000,277.708466 512.639343,299.511688 
	C510.402283,298.690125 508.353027,297.612488 506.680603,296.114227 
	C500.772980,290.821655 494.994354,285.385040 489.096069,279.538879 
	C489.072083,257.717285 489.118866,236.359833 489.516022,215.023895 
	C492.670471,217.289551 495.556793,219.439362 498.260681,221.798294 
	C503.230438,226.133896 508.092865,230.592606 513.000000,235.000000 
z"/>
<path fill="#EC4625" opacity="1.000000" stroke="none" 
	d="
M513.000000,234.531342 
	C508.092865,230.592606 503.230438,226.133896 498.260681,221.798294 
	C495.556793,219.439362 492.670471,217.289551 489.445496,214.559814 
	C489.071381,192.716507 489.118195,171.358841 489.515411,150.022934 
	C492.669952,152.288971 495.556335,154.438950 498.260406,156.797974 
	C503.230255,161.133713 508.092743,165.592499 513.000000,170.000000 
	C513.000000,191.354233 513.000000,212.708450 513.000000,234.531342 
z"/>
<path fill="#ED5123" opacity="1.000000" stroke="none" 
	d="
M226.000000,1.000002 
	C246.687561,1.000000 267.375122,1.000000 288.600037,1.336004 
	C293.300964,6.157357 297.507324,10.603948 301.613403,15.141304 
	C304.479034,18.307898 307.207275,21.598787 309.532654,24.901253 
	C288.043823,24.923058 267.019226,24.877764 245.918030,24.508427 
	C240.602066,18.664421 235.266800,13.230818 230.177048,7.576244 
	C228.463852,5.672956 227.374466,3.208170 226.000000,1.000002 
z"/>
<path fill="#EB3D26" opacity="1.000000" stroke="none" 
	d="
M513.000000,169.531342 
	C508.092743,165.592499 503.230255,161.133713 498.260406,156.797974 
	C495.556335,154.438950 492.669952,152.288971 489.445984,149.558777 
	C489.073181,129.382446 489.120270,109.692062 489.167328,90.001678 
	C492.402344,92.791786 495.692688,95.520782 498.859161,98.386620 
	C503.396210,102.492828 507.842834,106.698921 512.664062,110.931183 
	C513.000000,130.354233 513.000000,149.708450 513.000000,169.531342 
z"/>
<path fill="#EC4625" opacity="1.000000" stroke="none" 
	d="
M309.996887,24.834148 
	C307.207275,21.598787 304.479034,18.307898 301.613403,15.141304 
	C297.507324,10.603948 293.300964,6.157357 289.068726,1.336004 
	C308.687561,1.000000 328.375122,1.000000 348.550995,1.360665 
	C350.309784,3.597771 351.387268,5.647131 352.885590,7.319449 
	C358.178467,13.226931 363.615417,19.005304 368.533478,24.900051 
	C348.711761,24.923033 329.354340,24.878590 309.996887,24.834148 
z"/>
<path fill="#F79F15" opacity="1.000000" stroke="none" 
	d="
M1.000003,200.468658 
	C5.890103,204.390091 10.729308,208.838791 15.690519,213.147003 
	C18.408360,215.507126 21.332241,217.630005 24.567722,220.396103 
	C24.926102,239.955994 24.879976,258.979645 24.483570,277.980225 
	C21.329391,275.711945 18.443649,273.560547 15.739382,271.201111 
	C10.769865,266.865387 5.907202,262.407166 1.000000,258.000000 
	C1.000000,238.979111 1.000000,219.958206 1.000003,200.468658 
z"/>
<path fill="#F48819" opacity="1.000000" stroke="none" 
	d="
M452.000000,513.000000 
	C436.979095,513.000000 421.958221,513.000000 406.404724,512.653198 
	C404.258423,510.048035 402.825867,507.629456 400.996094,505.562500 
	C396.086761,500.016907 391.007477,494.621735 386.459717,489.094086 
	C406.270111,488.641998 425.616455,488.262695 444.988342,488.251404 
	C446.017151,490.254578 446.786102,492.107300 448.065918,493.485687 
	C452.652679,498.425659 457.412354,503.205017 461.916504,508.376404 
	C458.940918,509.479614 456.126404,510.165405 453.392609,511.089905 
	C452.782806,511.296082 452.456696,512.341125 452.000000,513.000000 
z"/>
<path fill="#EB3D26" opacity="1.000000" stroke="none" 
	d="
M368.997742,24.832630 
	C363.615417,19.005304 358.178467,13.226931 352.885590,7.319449 
	C351.387268,5.647131 350.309784,3.597771 349.019653,1.360665 
	C367.354218,1.000000 385.708466,1.000000 404.531342,0.999994 
	C409.389740,5.889740 413.838257,10.728449 418.145844,15.689531 
	C420.505432,18.407057 422.626984,21.331249 424.462555,24.564505 
	C405.712067,24.922054 387.354919,24.877340 368.997742,24.832630 
z"/>
<path fill="#EF5C21" opacity="1.000000" stroke="none" 
	d="
M225.531342,1.000002 
	C227.374466,3.208170 228.463852,5.672956 230.177048,7.576244 
	C235.266800,13.230818 240.602066,18.664421 245.454041,24.575697 
	C226.709457,24.921654 208.352203,24.876295 189.973267,24.480921 
	C187.707138,21.327450 185.556503,18.442169 183.197891,15.738311 
	C178.863220,10.769165 174.406082,5.906847 170.000000,0.999999 
	C188.354233,1.000000 206.708450,1.000000 225.531342,1.000002 
z"/>
<path fill="#EF5C21" opacity="1.000000" stroke="none" 
	d="
M489.166809,280.003052 
	C494.994354,285.385040 500.772980,290.821655 506.680603,296.114227 
	C508.353027,297.612488 510.402283,298.690125 512.639343,299.980347 
	C513.000000,318.020905 513.000000,336.041779 512.653198,354.467529 
	C510.048279,353.258850 507.630157,351.826233 505.563049,349.996948 
	C500.017517,345.089569 494.622223,340.012482 489.096344,334.538635 
	C489.072571,316.050690 489.119690,298.026855 489.166809,280.003052 
z"/>
<path fill="#FAB811" opacity="1.000000" stroke="none" 
	d="
M24.832985,426.004944 
	C19.378113,420.992981 13.983037,415.913452 8.437439,411.003967 
	C6.370511,409.174133 3.951852,407.741608 1.346793,406.063965 
	C1.000000,387.979095 1.000000,369.958221 1.335948,351.537537 
	C6.157472,355.301544 10.604809,359.507538 15.141747,363.614594 
	C18.308659,366.481384 21.598248,369.212677 24.903782,372.468079 
	C24.927338,390.622772 24.880163,408.313843 24.832985,426.004944 
z"/>
<path fill="#FAB811" opacity="1.000000" stroke="none" 
	d="
M105.468658,513.000000 
	C103.624908,510.791718 102.534897,508.326782 100.821175,506.423401 
	C95.729874,500.768585 90.393143,495.334747 85.537735,489.415588 
	C103.614052,489.066559 121.304985,489.116486 139.068237,489.501495 
	C141.370285,492.667603 143.493011,495.591553 145.853058,498.309418 
	C150.161240,503.270630 154.609924,508.109894 159.000000,513.000000 
	C141.312439,513.000000 123.624878,513.000000 105.468658,513.000000 
z"/>
<path fill="#F0651F" opacity="1.000000" stroke="none" 
	d="
M169.531342,0.999999 
	C174.406082,5.906847 178.863220,10.769165 183.197891,15.738311 
	C185.556503,18.442169 187.707138,21.327450 189.509430,24.549187 
	C171.710587,24.922426 154.353912,24.877384 136.975388,24.482170 
	C134.709076,21.328283 132.558594,18.442577 130.199753,15.738653 
	C125.864571,10.769291 121.406715,5.906953 117.000000,1.000002 
	C134.354233,1.000000 151.708450,1.000000 169.531342,0.999999 
z"/>
<path fill="#F59018" opacity="1.000000" stroke="none" 
	d="
M385.995667,489.166870 
	C391.007477,494.621735 396.086761,500.016907 400.996094,505.562500 
	C402.825867,507.629456 404.258423,510.048035 405.936035,512.653198 
	C388.645782,513.000000 371.291534,513.000000 353.449005,512.639343 
	C351.690002,510.402100 350.612457,508.352448 349.113800,506.680176 
	C343.819336,500.772369 338.380707,494.993713 333.460571,489.093140 
	C351.281525,489.069061 368.638611,489.117950 385.995667,489.166870 
z"/>
<path fill="#000000" opacity="1.000000" stroke="none" 
	d="
M452.468658,513.000000 
	C452.456696,512.341125 452.782806,511.296082 453.392609,511.089905 
	C456.126404,510.165405 458.940918,509.479614 462.294434,508.357574 
	C476.873199,503.324127 487.715027,494.335724 496.984222,482.690125 
	C504.143280,474.230072 508.015747,464.538818 511.038513,454.404419 
	C511.311462,453.489349 512.328491,452.796204 513.000000,452.000000 
	C513.000000,472.260162 513.000000,492.520294 513.000000,513.000000 
	C492.979645,513.000000 472.958466,513.000000 452.468658,513.000000 
z"/>
<path fill="#000000" opacity="1.000000" stroke="none" 
	d="
M513.000000,60.531342 
	C512.010803,59.544407 510.549072,58.219349 510.105316,56.613056 
	C505.613953,40.356083 496.016113,27.512852 483.135742,17.144640 
	C474.206787,9.957190 464.044678,4.827558 452.574951,2.734416 
	C452.180054,2.662350 451.879974,2.070703 451.767853,1.360617 
	C472.259552,1.000000 492.519073,1.000000 513.000000,1.000000 
	C513.000000,20.687008 513.000000,40.374847 513.000000,60.531342 
z"/>
<path fill="#000000" opacity="1.000000" stroke="none" 
	d="
M1.000006,453.468658 
	C1.985986,454.372894 3.440067,455.609039 3.887207,457.139404 
	C9.895153,477.701660 22.469458,493.087524 41.040722,503.361450 
	C47.837955,507.121796 55.440933,509.425690 62.338173,512.697021 
	C41.740459,513.000000 21.480917,513.000000 1.000000,513.000000 
	C1.000000,493.312988 1.000000,473.625153 1.000006,453.468658 
z"/>
<path fill="#000000" opacity="1.000000" stroke="none" 
	d="
M2.893257,60.949303 
	C2.410615,61.194027 1.927973,61.438755 1.222666,61.341740 
	C1.000000,41.073193 1.000000,21.146381 1.000000,1.000000 
	C20.687017,1.000000 40.374851,1.000000 60.860718,1.300117 
	C59.770897,2.400289 57.919849,3.305179 55.989086,3.983013 
	C45.223972,7.762325 34.962414,12.385629 26.647308,21.030468 
	C14.414001,32.006897 6.213527,45.039825 2.893257,60.949303 
z"/>
<path fill="#F16B1E" opacity="1.000000" stroke="none" 
	d="
M116.531342,1.000002 
	C121.406715,5.906953 125.864571,10.769291 130.199753,15.738653 
	C132.558594,18.442577 134.709076,21.328283 136.511368,24.550888 
	C119.378494,24.924095 102.687790,24.878414 85.920242,24.508623 
	C80.538788,18.599199 75.106659,13.126589 70.008797,7.358561 
	C68.517220,5.670907 67.976524,3.142858 67.000000,1.000000 
	C83.354225,1.000000 99.708458,1.000000 116.531342,1.000002 
z"/>
<path fill="#F8A813" opacity="1.000000" stroke="none" 
	d="
M1.000000,258.468658 
	C5.907202,262.407166 10.769865,266.865387 15.739382,271.201111 
	C18.443649,273.560547 21.329391,275.711945 24.553730,278.444061 
	C24.927507,295.288330 24.880840,311.645721 24.510101,327.924988 
	C18.380856,322.321503 12.650467,316.713867 6.720956,311.325317 
	C5.124820,309.874786 2.923515,309.090240 1.000003,308.000000 
	C1.000000,291.645782 1.000000,275.291534 1.000000,258.468658 
z"/>
<path fill="#F0651F" opacity="1.000000" stroke="none" 
	d="
M489.167267,335.002747 
	C494.622223,340.012482 500.017517,345.089569 505.563049,349.996948 
	C507.630157,351.826233 510.048279,353.258850 512.653198,354.936157 
	C513.000000,371.020905 513.000000,387.041779 512.639343,403.511566 
	C510.402191,402.689850 508.352814,401.612213 506.680389,400.113831 
	C500.772675,394.820801 494.994049,389.383728 489.095581,383.537292 
	C489.072205,367.049805 489.119720,351.026276 489.167267,335.002747 
z"/>
<path fill="#F8A813" opacity="1.000000" stroke="none" 
	d="
M256.000000,513.000000 
	C239.979111,513.000000 223.958206,513.000000 207.448990,512.639343 
	C205.690002,510.402100 204.612534,508.352325 203.113861,506.680084 
	C197.819260,500.772247 192.380417,494.993652 187.460068,489.092224 
	C203.948090,489.067627 219.972305,489.116882 236.074707,489.490204 
	C241.678299,495.619354 247.286041,501.349640 252.674637,507.279083 
	C254.125122,508.875214 254.909714,511.076508 256.000000,513.000000 
z"/>
<path fill="#F69816" opacity="1.000000" stroke="none" 
	d="
M332.996704,489.166107 
	C338.380707,494.993713 343.819336,500.772369 349.113800,506.680176 
	C350.612457,508.352448 351.690002,510.402100 352.980347,512.639343 
	C337.312439,513.000000 321.624878,513.000000 305.399963,512.664001 
	C299.394379,506.537872 293.849609,500.817017 288.507599,494.912750 
	C287.027863,493.277222 286.150513,491.096588 285.460632,489.092865 
	C301.615204,489.068481 317.305969,489.117279 332.996704,489.166107 
z"/>
<path fill="#F9AF12" opacity="1.000000" stroke="none" 
	d="
M186.996277,489.166046 
	C192.380417,494.993652 197.819260,500.772247 203.113861,506.680084 
	C204.612534,508.352325 205.690002,510.402100 206.980331,512.639343 
	C191.312439,513.000000 175.624878,513.000000 159.468658,513.000000 
	C154.609924,508.109894 150.161240,503.270630 145.853058,498.309418 
	C143.493011,495.591553 141.370285,492.667603 139.531998,489.427124 
	C155.614380,489.067169 171.305328,489.116608 186.996277,489.166046 
z"/>
<path fill="#F79F15" opacity="1.000000" stroke="none" 
	d="
M284.996796,489.166077 
	C286.150513,491.096588 287.027863,493.277222 288.507599,494.912750 
	C293.849609,500.817017 299.394379,506.537872 304.931274,512.664001 
	C288.979095,513.000000 272.958221,513.000000 256.468658,513.000000 
	C254.909714,511.076508 254.125122,508.875214 252.674637,507.279083 
	C247.286041,501.349640 241.678299,495.619354 236.538483,489.416534 
	C252.948334,489.067902 268.972565,489.116974 284.996796,489.166077 
z"/>
<path fill="#F2741C" opacity="1.000000" stroke="none" 
	d="
M66.571533,1.000000 
	C67.976524,3.142858 68.517220,5.670907 70.008797,7.358561 
	C75.106659,13.126589 80.538788,18.599199 85.475021,24.576878 
	C76.780396,26.324770 68.231316,26.924431 60.203140,29.291113 
	C54.476273,30.979378 49.449398,35.042141 43.816029,37.875484 
	C37.999344,32.100708 32.476788,26.495752 26.954231,20.890797 
	C34.962414,12.385629 45.223972,7.762325 55.989086,3.983013 
	C57.919849,3.305179 59.770897,2.400289 61.329376,1.300117 
	C62.714359,1.000000 64.428719,1.000000 66.571533,1.000000 
z"/>
<path fill="#F9AF12" opacity="1.000000" stroke="none" 
	d="
M1.000003,308.468658 
	C2.923515,309.090240 5.124820,309.874786 6.720956,311.325317 
	C12.650467,316.713867 18.380856,322.321503 24.580629,328.388763 
	C24.927834,343.288605 24.880436,357.646545 24.833046,372.004456 
	C21.598248,369.212677 18.308659,366.481384 15.141747,363.614594 
	C10.604809,359.507538 6.157472,355.301544 1.335948,351.068878 
	C1.000000,336.979095 1.000000,322.958221 1.000003,308.468658 
z"/>
<path fill="#F16B1E" opacity="1.000000" stroke="none" 
	d="
M489.166443,384.001282 
	C494.994049,389.383728 500.772675,394.820801 506.680389,400.113831 
	C508.352814,401.612213 510.402191,402.689850 512.639343,403.980225 
	C513.000000,418.020905 513.000000,432.041779 512.621460,446.534912 
	C510.179047,445.855072 507.842743,445.014923 506.101196,443.493835 
	C500.340881,438.462677 494.795258,433.185760 489.095459,427.539124 
	C489.071289,412.717163 489.118866,398.359222 489.166443,384.001282 
z"/>
<path fill="#F2741C" opacity="1.000000" stroke="none" 
	d="
M489.167236,428.003174 
	C494.795258,433.185760 500.340881,438.462677 506.101196,443.493835 
	C507.842743,445.014923 510.179047,445.855072 512.621460,447.003571 
	C513.000000,448.388885 513.000000,449.777802 513.000000,451.583313 
	C512.328491,452.796204 511.311462,453.489349 511.038513,454.404419 
	C508.015747,464.538818 504.143280,474.230072 496.660339,482.612549 
	C490.440430,476.863434 484.697083,470.878571 479.093719,464.574371 
	C480.482330,462.202209 481.786926,460.181091 482.969940,458.091125 
	C488.267090,448.733063 487.948761,438.207855 489.167236,428.003174 
z"/>
<path fill="#000000" opacity="1.000000" stroke="none" 
	d="
M489.095459,427.539124 
	C487.948761,438.207855 488.267090,448.733063 482.969940,458.091125 
	C481.786926,460.181091 480.482330,462.202209 478.786743,464.735870 
	C475.682556,468.229767 473.150604,471.365509 470.343414,474.231659 
	C463.320221,481.402344 454.358978,485.070404 444.962799,487.883362 
	C425.616455,488.262695 406.270111,488.641998 386.459717,489.094055 
	C368.638611,489.117950 351.281525,489.069061 333.460571,489.093140 
	C317.305969,489.117279 301.615204,489.068481 285.460632,489.092865 
	C268.972565,489.116974 252.948334,489.067902 236.460327,489.092468 
	C219.972305,489.116882 203.948090,489.067627 187.460052,489.092224 
	C171.305328,489.116608 155.614380,489.067169 139.459686,489.092041 
	C121.304985,489.116486 103.614052,489.066559 85.459435,489.091553 
	C73.224327,487.975647 61.587337,487.139771 51.102322,480.140594 
	C38.902294,471.996643 30.631124,461.340668 27.168747,447.311188 
	C25.543758,440.726715 25.651831,433.714539 24.903749,426.450562 
	C24.880163,408.313843 24.927338,390.622772 24.903774,372.468079 
	C24.880436,357.646545 24.927834,343.288605 24.904705,328.466858 
	C24.880840,311.645721 24.927507,295.288330 24.904013,278.467133 
	C24.879976,258.979645 24.926102,239.955994 24.902779,220.468567 
	C24.879101,197.313980 24.924871,174.623184 24.901901,151.468445 
	C24.879063,127.980133 24.924965,104.955750 25.102907,81.091866 
	C25.609997,76.557831 25.683149,72.802299 26.415075,69.179871 
	C28.896431,56.899220 35.515289,46.892399 44.110157,38.045311 
	C49.449398,35.042141 54.476273,30.979378 60.203140,29.291113 
	C68.231316,26.924431 76.780396,26.324770 85.551865,24.900990 
	C102.687790,24.878414 119.378494,24.924095 136.533218,24.901058 
	C154.353912,24.877384 171.710587,24.922426 189.531113,24.899204 
	C208.352203,24.876295 226.709457,24.921654 245.530670,24.899742 
	C267.019226,24.877764 288.043823,24.923058 309.532654,24.901249 
	C329.354340,24.878590 348.711761,24.923033 368.533478,24.900051 
	C387.354919,24.877340 405.712067,24.922054 424.533569,24.899647 
	C436.051422,25.617535 447.177917,25.570316 457.509369,30.792267 
	C473.884399,39.068878 483.892334,52.237640 487.731537,69.903625 
	C489.078644,76.102264 488.647797,82.687286 489.098083,89.548782 
	C489.120270,109.692062 489.073181,129.382446 489.095581,149.536987 
	C489.118195,171.358841 489.071381,192.716507 489.095093,214.538284 
	C489.118866,236.359833 489.072083,257.717285 489.096069,279.538879 
	C489.119690,298.026855 489.072571,316.050690 489.096344,334.538635 
	C489.119720,351.026276 489.072205,367.049805 489.095581,383.537292 
	C489.118866,398.359222 489.071289,412.717163 489.095459,427.539124 
M206.070801,100.029167 
	C191.379608,100.075089 176.688400,100.121010 161.069092,100.030190 
	C153.634415,100.020126 146.191620,99.787773 138.767242,100.059258 
	C130.477020,100.362396 123.102539,103.319756 116.201378,109.010132 
	C112.208481,113.816269 107.670486,118.275452 104.342140,123.504578 
	C98.379890,132.871765 99.966545,143.607269 100.028618,154.933136 
	C100.074554,174.623672 100.120483,194.314194 100.028160,214.932388 
	C100.074097,231.622406 100.120041,248.312424 100.025978,265.930206 
	C100.072571,280.287781 100.119171,294.645355 100.025848,309.930634 
	C100.073090,323.288910 100.120331,336.647217 100.026932,350.932770 
	C100.018509,358.246216 100.157104,365.563416 99.972595,372.872406 
	C99.518616,390.855835 113.682343,409.295685 132.404526,412.722412 
	C142.658798,414.599274 153.447205,413.557892 164.922668,413.979950 
	C178.947327,413.931244 192.972000,413.882538 207.924255,413.980316 
	C224.281174,413.931335 240.638077,413.882355 257.923004,413.979431 
	C273.613983,413.930817 289.304962,413.882233 305.923828,413.979034 
	C321.281677,413.930756 336.639496,413.882507 352.925140,413.978699 
	C358.549225,413.986023 364.208740,414.390625 369.787872,413.893433 
	C375.853485,413.352844 382.134460,412.776367 387.785828,410.733582 
	C393.359192,408.718903 399.318268,406.227600 402.828674,399.993317 
	C408.045807,394.900726 412.085968,388.736664 412.798462,381.654205 
	C413.885773,370.844940 413.558990,359.893433 413.976166,348.074432 
	C413.928528,327.384491 413.880890,306.694550 413.976532,285.076355 
	C413.929016,263.052246 413.881500,241.028152 413.975647,218.075592 
	C413.928436,201.384094 413.881226,184.692581 413.973785,167.072891 
	C413.982269,158.242371 413.921417,149.411133 414.013824,140.581497 
	C414.200043,122.790047 400.250427,104.792648 382.181366,101.343750 
	C371.115448,99.231567 359.414490,100.446419 347.070251,100.030899 
	C333.046112,100.076523 319.021973,100.122154 304.069641,100.031303 
	C287.712494,100.076523 271.355377,100.121742 254.069839,100.030769 
	C238.379654,100.075943 222.689484,100.121117 206.070801,100.029167 
z"/>
<path fill="#F37E1B" opacity="1.000000" stroke="none" 
	d="
M43.816029,37.875488 
	C35.515289,46.892399 28.896431,56.899220 26.415075,69.179871 
	C25.683149,72.802299 25.609997,76.557831 25.034550,80.627838 
	C21.152573,77.765312 17.409363,74.594101 13.806956,71.270287 
	C10.289855,68.025192 6.916547,64.624245 3.186686,61.120510 
	C6.213527,45.039825 14.414001,32.006897 26.647308,21.030468 
	C32.476788,26.495752 37.999344,32.100708 43.816029,37.875488 
z"/>
<path fill="#F37E1B" opacity="1.000000" stroke="none" 
	d="
M444.988342,488.251404 
	C454.358978,485.070404 463.320221,481.402344 470.343414,474.231659 
	C473.150604,471.365509 475.682556,468.229767 478.646729,465.055206 
	C484.697083,470.878571 490.440430,476.863434 496.507690,482.925873 
	C487.715027,494.335724 476.873199,503.324127 462.484589,508.026306 
	C457.412354,503.205017 452.652679,498.425659 448.065918,493.485687 
	C446.786102,492.107300 446.017151,490.254578 444.988342,488.251404 
z"/>
<path fill="#F16B1E" opacity="1.000000" stroke="none" 
	d="
M413.833252,286.004608 
	C413.880890,306.694550 413.928528,327.384491 413.569519,348.466766 
	C410.812073,347.109528 408.324371,345.514709 406.137665,343.579712 
	C400.740631,338.803986 395.481689,333.872284 390.095581,328.545532 
	C390.014923,326.756744 389.818085,325.395020 390.029602,324.099945 
	C390.913971,318.685242 388.701233,314.945465 384.818512,311.136230 
	C364.032837,290.743958 343.535614,270.057495 322.959473,249.451981 
	C316.173462,242.656265 309.449432,235.798645 302.724030,228.996613 
	C299.963867,231.551636 297.535461,233.799576 294.813385,235.876846 
	C288.996979,229.759094 283.474243,223.812012 278.090027,217.564880 
	C283.043427,212.438385 287.771545,207.521255 292.695923,202.809143 
	C298.447540,197.305420 306.944489,197.467255 312.477051,202.997681 
	C336.835236,227.346344 361.194977,251.693390 385.530731,276.064423 
	C386.759705,277.295197 387.770477,278.743927 388.882812,280.091187 
	C389.310760,279.829010 389.738678,279.566833 390.166595,279.304657 
	C390.166595,274.871094 390.166595,270.437500 390.490784,266.080505 
	C396.564636,271.625885 402.243774,277.172150 408.109772,282.513214 
	C409.732178,283.990479 411.910187,284.857544 413.833252,286.004608 
z"/>
<path fill="#F59117" opacity="1.000000" stroke="none" 
	d="
M100.165985,265.002441 
	C100.120041,248.312424 100.074097,231.622406 100.421425,214.544464 
	C105.265984,218.327209 109.673767,222.545639 114.183479,226.652161 
	C117.327858,229.515427 120.611946,232.225281 123.902756,235.467590 
	C123.971878,252.088608 123.971878,268.245667 123.971878,284.402740 
	C124.587364,284.830322 125.202850,285.257904 125.818336,285.685516 
	C132.866089,278.084106 139.913834,270.482697 147.036255,263.222382 
	C150.689713,267.158081 154.177597,270.850006 157.881241,274.311066 
	C160.121429,276.404510 162.696121,278.140045 164.980789,280.344299 
	C156.933731,288.448212 149.026382,296.244263 140.823761,303.872192 
	C128.773254,292.056946 117.040665,280.386780 105.234436,268.791565 
	C103.743027,267.326813 101.864922,266.255829 100.165985,265.002441 
z"/>
<path fill="#ED4F23" opacity="1.000000" stroke="none" 
	d="
M347.998718,100.167152 
	C359.414490,100.446419 371.115448,99.231567 382.181366,101.343750 
	C400.250427,104.792648 414.200043,122.790047 414.013824,140.581497 
	C413.921417,149.411133 413.982269,158.242371 413.579956,167.459808 
	C407.436249,162.376709 401.757141,156.828949 395.890503,151.487137 
	C394.268921,150.010605 392.089233,149.146988 390.095581,147.584457 
	C389.025391,142.965866 388.658966,138.474106 386.892303,134.625031 
	C383.288910,126.774307 375.707855,124.985428 367.920898,123.509216 
	C362.632019,117.692795 357.331451,112.280647 352.257721,106.663612 
	C350.542694,104.764923 349.401947,102.347504 347.998718,100.167152 
z"/>
<path fill="#F8A813" opacity="1.000000" stroke="none" 
	d="
M163.994766,413.832458 
	C153.447205,413.557892 142.658798,414.599274 132.404526,412.722412 
	C113.682343,409.295685 99.518616,390.855835 99.972595,372.872406 
	C100.157104,365.563416 100.018509,358.246216 100.421280,350.545044 
	C106.852837,355.914276 112.845345,361.719360 118.959061,367.393860 
	C120.464798,368.791412 122.365463,369.763428 124.055939,370.943237 
	C124.027298,370.955414 124.049385,370.897186 124.148483,371.100830 
	C124.407951,371.563141 124.603050,371.792328 124.902832,372.390381 
	C125.779602,375.171936 126.332603,377.680908 127.440651,379.914612 
	C130.805313,386.697571 137.310715,388.625122 144.073532,390.491699 
	C149.621536,396.564728 155.169022,402.242920 160.510559,408.108704 
	C161.986877,409.729858 162.850189,411.909210 163.994766,413.832458 
z"/>
<path fill="#EF6020" opacity="1.000000" stroke="none" 
	d="
M413.904907,285.540466 
	C411.910187,284.857544 409.732178,283.990479 408.109772,282.513214 
	C402.243774,277.172150 396.564636,271.625885 390.419159,265.616394 
	C390.070831,243.051590 390.118317,221.027466 390.516083,199.024902 
	C392.720062,200.340179 394.730225,201.459732 396.399170,202.959091 
	C402.274078,208.236938 408.031830,213.645233 413.834015,219.004044 
	C413.881500,241.028152 413.929016,263.052246 413.904907,285.540466 
z"/>
<path fill="#F48819" opacity="1.000000" stroke="none" 
	d="
M123.833633,235.003647 
	C120.611946,232.225281 117.327858,229.515427 114.183479,226.652161 
	C109.673767,222.545639 105.265984,218.327209 100.490555,214.080643 
	C100.120483,194.314194 100.074554,174.623672 100.421478,154.544983 
	C105.265793,158.327438 109.673759,162.545837 114.183617,166.652328 
	C117.328125,169.515594 120.612305,172.225479 123.902763,175.467865 
	C123.925491,195.622452 123.879562,215.313049 123.833633,235.003647 
z"/>
<path fill="#F2741C" opacity="1.000000" stroke="none" 
	d="
M390.167236,329.003235 
	C395.481689,333.872284 400.740631,338.803986 406.137665,343.579712 
	C408.324371,345.514709 410.812073,347.109528 413.497742,348.930725 
	C413.558990,359.893433 413.885773,370.844940 412.798462,381.654205 
	C412.085968,388.736664 408.045807,394.900726 402.128357,399.945068 
	C399.880768,398.693329 398.233582,397.597229 396.804993,396.266388 
	C392.452911,392.212158 388.185089,388.067474 384.032806,383.636963 
	C389.140839,378.472107 389.714233,372.041229 389.905396,365.775757 
	C390.279053,353.526978 390.111023,341.261688 390.167236,329.003235 
z"/>
<path fill="#F69816" opacity="1.000000" stroke="none" 
	d="
M100.095978,265.466309 
	C101.864922,266.255829 103.743027,267.326813 105.234436,268.791565 
	C117.040665,280.386780 128.773254,292.056946 140.684937,304.180298 
	C137.216797,308.283051 133.798904,312.151611 129.912155,315.471222 
	C125.640160,319.119873 122.907066,323.160675 123.498993,328.930908 
	C120.812767,327.109283 118.324585,325.514709 116.137634,323.579712 
	C110.740074,318.803955 105.480690,313.872070 100.165764,309.002930 
	C100.119171,294.645355 100.072571,280.287781 100.095978,265.466309 
z"/>
<path fill="#F3801B" opacity="1.000000" stroke="none" 
	d="
M383.884460,383.958008 
	C388.185089,388.067474 392.452911,392.212158 396.804993,396.266388 
	C398.233582,397.597229 399.880768,398.693329 401.771545,399.968628 
	C399.318268,406.227600 393.359192,408.718903 387.785828,410.733582 
	C382.134460,412.776367 375.853485,413.352844 369.787872,413.893433 
	C364.208740,414.390625 358.549225,413.986023 352.439514,413.556366 
	C350.660217,411.280212 349.540802,409.269836 348.041473,407.600830 
	C342.763794,401.725861 337.355621,395.968140 332.460907,390.093658 
	C343.896851,390.014771 354.869415,390.073273 365.840607,389.977112 
	C372.467285,389.919037 378.738739,388.566528 383.884460,383.958008 
z"/>
<path fill="#F37E1B" opacity="1.000000" stroke="none" 
	d="
M123.834099,175.003876 
	C120.612305,172.225479 117.328125,169.515594 114.183617,166.652328 
	C109.673759,162.545837 105.265793,158.327438 100.490158,154.081131 
	C99.966545,143.607269 98.379890,132.871765 104.342140,123.504578 
	C107.670486,118.275452 112.208481,113.816269 116.841789,109.151405 
	C123.005318,115.236755 128.528427,121.180832 133.894196,127.429695 
	C133.028900,128.117584 132.246185,128.406250 131.624557,128.898407 
	C125.375931,133.845505 124.345840,140.971970 124.069611,148.171860 
	C123.726852,157.105728 123.889664,166.058990 123.834099,175.003876 
z"/>
<path fill="#EE5622" opacity="1.000000" stroke="none" 
	d="
M413.904846,218.539825 
	C408.031830,213.645233 402.274078,208.236938 396.399170,202.959091 
	C394.730225,201.459732 392.720062,200.340179 390.445312,198.560730 
	C390.071350,181.384033 390.118500,164.693100 390.165649,148.002151 
	C392.089233,149.146988 394.268921,150.010605 395.890503,151.487137 
	C401.757141,156.828949 407.436249,162.376709 413.510071,167.923920 
	C413.881226,184.692581 413.928436,201.384094 413.904846,218.539825 
z"/>
<path fill="#EF5C21" opacity="1.000000" stroke="none" 
	d="
M254.998245,100.166962 
	C271.355377,100.121742 287.712494,100.076523 304.605347,100.434372 
	C306.890564,103.188179 308.485260,105.675980 310.420319,107.862572 
	C315.196350,113.259407 320.128479,118.518097 324.533752,123.900543 
	C307.712524,123.923553 291.355469,123.878342 274.921387,123.508965 
	C269.375336,117.435364 263.828766,111.756516 258.487549,105.890656 
	C257.010559,104.268578 256.144562,102.090134 254.998245,100.166962 
z"/>
<path fill="#F69816" opacity="1.000000" stroke="none" 
	d="
M256.994995,413.833374 
	C240.638077,413.882355 224.281174,413.931335 207.438812,413.557007 
	C205.659683,411.279968 204.540192,409.269745 203.040833,407.600769 
	C197.763138,401.725952 192.354950,395.968384 187.460175,390.093079 
	C203.948090,390.068726 219.972137,390.117645 236.074341,390.490601 
	C240.323959,395.265381 244.543884,399.671997 248.650223,404.182037 
	C251.512482,407.325714 254.218948,410.611206 256.994995,413.833374 
z"/>
<path fill="#F2741C" opacity="1.000000" stroke="none" 
	d="
M134.051544,127.124908 
	C128.528427,121.180832 123.005318,115.236755 117.189102,109.121201 
	C123.102539,103.319756 130.477020,100.362396 138.767242,100.059258 
	C146.191620,99.787773 153.634415,100.020126 161.610764,100.422417 
	C167.622665,106.564034 173.170639,112.242622 178.512650,118.108765 
	C179.989166,119.730141 180.852707,121.909729 181.533325,123.901566 
	C169.942123,123.980423 158.803192,123.696213 147.693695,124.143379 
	C143.113724,124.327728 138.597031,126.083740 134.051544,127.124908 
z"/>
<path fill="#F59018" opacity="1.000000" stroke="none" 
	d="
M257.458984,413.906403 
	C254.218948,410.611206 251.512482,407.325714 248.650223,404.182037 
	C244.543884,399.671997 240.323959,395.265381 236.538269,390.417542 
	C252.948257,390.069153 268.972473,390.117828 285.068817,390.501587 
	C286.890442,393.187653 288.485168,395.675537 290.420135,397.862427 
	C295.195587,403.259735 300.127136,408.518951 304.995941,413.833649 
	C289.304962,413.882233 273.613983,413.930817 257.458984,413.906403 
z"/>
<path fill="#F0651F" opacity="1.000000" stroke="none" 
	d="
M254.534042,100.098862 
	C256.144562,102.090134 257.010559,104.268578 258.487549,105.890656 
	C263.828766,111.756516 269.375336,117.435364 274.457092,123.577072 
	C258.379547,123.924141 242.689255,123.878952 226.921967,123.509544 
	C221.375763,117.435623 215.828995,111.756531 210.487717,105.890350 
	C209.010834,104.268303 208.145325,102.089600 206.999298,100.166298 
	C222.689484,100.121117 238.379654,100.075943 254.534042,100.098862 
z"/>
<path fill="#F48819" opacity="1.000000" stroke="none" 
	d="
M305.459900,413.906342 
	C300.127136,408.518951 295.195587,403.259735 290.420135,397.862427 
	C288.485168,395.675537 286.890442,393.187653 285.532715,390.428894 
	C301.281982,390.069397 316.639465,390.117676 331.996948,390.165924 
	C337.355621,395.968140 342.763794,401.725861 348.041473,407.600830 
	C349.540802,409.269836 350.660217,411.280212 351.975586,413.484131 
	C336.639496,413.882507 321.281677,413.930756 305.459900,413.906342 
z"/>
<path fill="#F16B1E" opacity="1.000000" stroke="none" 
	d="
M206.535049,100.097733 
	C208.145325,102.089600 209.010834,104.268303 210.487717,105.890350 
	C215.828995,111.756531 221.375763,117.435623 226.457703,123.578110 
	C211.379471,123.924995 196.688477,123.879097 181.997482,123.833199 
	C180.852707,121.909729 179.989166,119.730141 178.512650,118.108765 
	C173.170639,112.242622 167.622665,106.564034 162.074829,100.490784 
	C176.688400,100.121010 191.379608,100.075089 206.535049,100.097733 
z"/>
<path fill="#F79F15" opacity="1.000000" stroke="none" 
	d="
M186.996277,390.166321 
	C192.354950,395.968384 197.763138,401.725952 203.040833,407.600769 
	C204.540192,409.269745 205.659683,411.279968 206.975021,413.483765 
	C192.972000,413.882538 178.947327,413.931244 164.458710,413.906189 
	C162.850189,411.909210 161.986877,409.729858 160.510559,408.108704 
	C155.169022,402.242920 149.621536,396.564728 144.537460,390.417999 
	C158.947510,390.068970 172.971893,390.117645 186.996277,390.166321 
z"/>
<path fill="#EE5622" opacity="1.000000" stroke="none" 
	d="
M324.997894,123.832306 
	C320.128479,118.518097 315.196350,113.259407 310.420319,107.862572 
	C308.485260,105.675980 306.890564,103.188179 305.069427,100.502609 
	C319.021973,100.122154 333.046112,100.076523 347.534485,100.099030 
	C349.401947,102.347504 350.542694,104.764923 352.257721,106.663612 
	C357.331451,112.280647 362.632019,117.692795 367.456726,123.577286 
	C353.045685,123.923752 339.021790,123.878029 324.997894,123.832306 
z"/>
<path fill="#F79F15" opacity="1.000000" stroke="none" 
	d="
M100.095810,309.466797 
	C105.480690,313.872070 110.740074,318.803955 116.137634,323.579712 
	C118.324585,325.514709 120.812767,327.109283 123.568970,329.394775 
	C124.010902,343.597504 124.047745,357.264282 124.084579,370.931030 
	C122.365463,369.763428 120.464798,368.791412 118.959061,367.393860 
	C112.845345,361.719360 106.852837,355.914276 100.491600,350.081421 
	C100.120331,336.647217 100.073090,323.288910 100.095810,309.466797 
z"/>
<path fill="#000000" opacity="1.000000" stroke="none" 
	d="
M124.055939,370.943237 
	C124.047745,357.264282 124.010902,343.597504 123.904091,329.466888 
	C122.907066,323.160675 125.640160,319.119873 129.912155,315.471222 
	C133.798904,312.151611 137.216797,308.283051 140.980194,304.348389 
	C149.026382,296.244263 156.933731,288.448212 165.285568,280.215424 
	C172.616669,272.848816 179.503296,265.918915 186.245255,259.134583 
	C188.798019,261.289032 190.897964,263.061279 193.307571,264.982117 
	C202.356628,272.533112 211.080811,279.953583 219.839050,287.333649 
	C232.354309,297.879517 244.853729,308.444855 257.443756,318.900940 
	C262.586731,323.172180 270.560211,323.110962 274.421753,319.051849 
	C279.557983,313.652832 279.472046,305.593781 273.717041,300.321259 
	C266.346344,293.568451 258.633331,287.189301 251.054794,280.637878 
	C254.492935,277.017303 257.801422,273.533264 261.415253,269.918701 
	C272.849426,258.541321 283.978241,247.294403 295.107056,236.047485 
	C297.535461,233.799576 299.963867,231.551636 302.724030,228.996613 
	C309.449432,235.798645 316.173462,242.656265 322.959473,249.451981 
	C343.535614,270.057495 364.032837,290.743958 384.818512,311.136230 
	C388.701233,314.945465 390.913971,318.685242 390.029602,324.099945 
	C389.818085,325.395020 390.014923,326.756744 390.095581,328.545532 
	C390.111023,341.261688 390.279053,353.526978 389.905396,365.775757 
	C389.714233,372.041229 389.140839,378.472107 384.032806,383.636963 
	C378.738739,388.566528 372.467285,389.919037 365.840607,389.977112 
	C354.869415,390.073273 343.896851,390.014771 332.460907,390.093658 
	C316.639465,390.117676 301.281982,390.069397 285.460602,390.093811 
	C268.972473,390.117828 252.948257,390.069153 236.460098,390.093506 
	C219.972137,390.117645 203.948090,390.068726 187.460159,390.093079 
	C172.971893,390.117645 158.947510,390.068970 144.459213,390.093994 
	C137.310715,388.625122 130.805313,386.697571 127.440651,379.914612 
	C126.332603,377.680908 125.779602,375.171936 124.937653,372.127930 
	C124.618141,371.277069 124.333763,371.087128 124.049385,370.897186 
	C124.049385,370.897186 124.027298,370.955414 124.055939,370.943237 
z"/>
<path fill="#000000" opacity="1.000000" stroke="none" 
	d="
M324.533752,123.900528 
	C339.021790,123.878029 353.045685,123.923752 367.533752,123.901398 
	C375.707855,124.985428 383.288910,126.774307 386.892303,134.625031 
	C388.658966,138.474106 389.025391,142.965866 390.095581,147.584457 
	C390.118500,164.693100 390.071350,181.384033 390.094971,198.539154 
	C390.118317,221.027466 390.070831,243.051590 390.094971,265.539795 
	C390.166595,270.437500 390.166595,274.871094 390.166595,279.304657 
	C389.738678,279.566833 389.310760,279.829010 388.882812,280.091187 
	C387.770477,278.743927 386.759705,277.295197 385.530731,276.064423 
	C361.194977,251.693390 336.835236,227.346344 312.477051,202.997681 
	C306.944489,197.467255 298.447540,197.305420 292.695923,202.809143 
	C287.771545,207.521255 283.043427,212.438385 277.779419,217.699615 
	C265.864563,229.724335 254.398788,241.314301 242.628891,253.043091 
	C238.819260,256.854034 235.313736,260.526154 231.586380,264.430664 
	C221.067429,255.521103 211.252487,246.919449 201.095154,238.743134 
	C196.892776,235.360397 192.292313,231.718155 187.275024,230.280624 
	C179.963531,228.185776 175.285126,233.831482 170.646408,239.028229 
	C162.546570,247.071793 154.754105,254.976578 146.961609,262.881348 
	C139.913834,270.482697 132.866089,278.084106 125.818336,285.685516 
	C125.202850,285.257904 124.587364,284.830322 123.971878,284.402740 
	C123.971878,268.245667 123.971878,252.088608 123.902756,235.467590 
	C123.879562,215.313049 123.925491,195.622452 123.902763,175.467865 
	C123.889664,166.058990 123.726852,157.105728 124.069611,148.171860 
	C124.345840,140.971970 125.375931,133.845505 131.624557,128.898407 
	C132.246185,128.406250 133.028900,128.117584 133.894196,127.429688 
	C138.597031,126.083740 143.113724,124.327728 147.693695,124.143379 
	C158.803192,123.696213 169.942123,123.980423 181.533325,123.901566 
	C196.688477,123.879097 211.379471,123.924995 226.534729,123.902321 
	C242.689255,123.878952 258.379547,123.924141 274.534119,123.901230 
	C291.355469,123.878342 307.712524,123.923553 324.533752,123.900528 
M235.802887,197.987579 
	C244.008163,192.039383 248.329346,180.913330 245.754089,171.544113 
	C242.600281,160.070023 234.944168,152.884537 223.258255,151.345047 
	C214.120712,150.141281 205.860168,153.150726 199.311661,161.208603 
	C190.657303,174.136047 193.759445,188.584442 203.635590,197.332062 
	C211.448547,204.252243 228.742096,205.323318 235.802887,197.987579 
z"/>
<path fill="#F2741C" opacity="1.000000" stroke="none" 
	d="
M242.933014,252.904251 
	C254.398788,241.314301 265.864563,229.724335 277.640930,217.999634 
	C283.474243,223.812012 288.996979,229.759094 294.813354,235.876831 
	C283.978241,247.294403 272.849426,258.541321 261.103210,269.769165 
	C254.634888,264.134796 248.783951,258.519501 242.933014,252.904251 
z"/>
<path fill="#F48919" opacity="1.000000" stroke="none" 
	d="
M147.036270,263.222412 
	C154.754105,254.976578 162.546570,247.071793 170.815933,239.325775 
	C177.384491,246.012314 183.544006,252.478958 189.519394,259.111450 
	C190.987396,260.740875 191.854538,262.911652 192.997894,264.833557 
	C190.897964,263.061279 188.798019,261.289032 186.245255,259.134583 
	C179.503296,265.918915 172.616669,272.848816 165.425278,279.907532 
	C162.696121,278.140045 160.121429,276.404510 157.881241,274.311066 
	C154.177597,270.850006 150.689713,267.158081 147.036270,263.222412 
z"/>
<path fill="#F79F15" opacity="1.000000" stroke="none" 
	d="
M124.148483,371.100830 
	C124.333763,371.087128 124.618141,371.277069 124.867691,371.729492 
	C124.603050,371.792328 124.407951,371.563141 124.148483,371.100830 
z"/>
<path fill="#F4821A" opacity="1.000000" stroke="none" 
	d="
M193.307556,264.982117 
	C191.854538,262.911652 190.987396,260.740875 189.519394,259.111450 
	C183.544006,252.478958 177.384491,246.012314 171.123306,239.187012 
	C175.285126,233.831482 179.963531,228.185776 187.275024,230.280624 
	C192.292313,231.718155 196.892776,235.360397 201.095154,238.743134 
	C211.252487,246.919449 221.067429,255.521103 231.586380,264.430664 
	C235.313736,260.526154 238.819260,256.854034 242.628891,253.043076 
	C248.783951,258.519501 254.634888,264.134796 260.797852,269.899628 
	C257.801422,273.533264 254.492935,277.017303 251.054794,280.637878 
	C258.633331,287.189301 266.346344,293.568451 273.717041,300.321259 
	C279.472046,305.593781 279.557983,313.652832 274.421753,319.051849 
	C270.560211,323.110962 262.586731,323.172180 257.443756,318.900940 
	C244.853729,308.444855 232.354309,297.879517 219.839050,287.333649 
	C211.080811,279.953583 202.356628,272.533112 193.307556,264.982117 
z"/>
<path fill="#F1711D" opacity="1.000000" stroke="none" 
	d="
M199.949417,160.873322 
	C205.860168,153.150726 214.120712,150.141281 223.258255,151.345047 
	C234.944168,152.884537 242.600281,160.070023 245.754089,171.544113 
	C248.329346,180.913330 244.008163,192.039383 235.203583,197.795349 
	C224.258118,187.090576 213.882126,176.607040 203.599731,166.032486 
	C202.148849,164.540405 201.154877,162.604050 199.949417,160.873322 
z"/>
<path fill="#F2741C" opacity="1.000000" stroke="none" 
	d="
M199.630539,161.040955 
	C201.154877,162.604050 202.148849,164.540405 203.599731,166.032486 
	C213.882126,176.607040 224.258118,187.090576 234.855804,197.827423 
	C228.742096,205.323318 211.448547,204.252243 203.635590,197.332062 
	C193.759445,188.584442 190.657303,174.136047 199.630539,161.040955 
z"/>
</svg>